<svg width="64" height="64" viewBox="0 0 64 64" xmlns="http://www.w3.org/2000/svg">
  <!-- Background -->
  <rect x="0" y="0" width="64" height="64" fill="#F5F5F5" rx="8"/>
  
  <!-- Main vertical line -->
  <line x1="16" y1="12" x2="16" y2="52" stroke="#666666" stroke-width="1.5"/>
  
  <!-- Root folder -->
  <rect x="20" y="8" width="12" height="8" fill="#FFD54F" stroke="#FFA000" stroke-width="1" rx="1"/>
  <rect x="18" y="10" width="16" height="10" fill="#FFECB3" stroke="#FFA000" stroke-width="1" rx="1"/>
  
  <!-- First level -->
  <line x1="16" y1="22" x2="24" y2="22" stroke="#666666" stroke-width="1.5"/>
  <rect x="26" y="18" width="10" height="6" fill="#81C784" stroke="#4CAF50" stroke-width="1" rx="1"/>
  <rect x="24" y="20" width="14" height="8" fill="#C8E6C9" stroke="#4CAF50" stroke-width="1" rx="1"/>
  
  <!-- Second level branch -->
  <line x1="16" y1="32" x2="24" y2="32" stroke="#666666" stroke-width="1.5"/>
  <rect x="26" y="28" width="10" height="6" fill="#81C784" stroke="#4CAF50" stroke-width="1" rx="1"/>
  <rect x="24" y="30" width="14" height="8" fill="#C8E6C9" stroke="#4CAF50" stroke-width="1" rx="1"/>
  
  <!-- Vertical connector for subfolder -->
  <line x1="30" y1="36" x2="30" y2="42" stroke="#666666" stroke-width="1"/>
  
  <!-- Subfolder -->
  <line x1="30" y1="42" x2="38" y2="42" stroke="#666666" stroke-width="1"/>
  <rect x="40" y="38" width="8" height="5" fill="#90A4AE" stroke="#607D8B" stroke-width="1" rx="1"/>
  <rect x="38" y="40" width="12" height="6" fill="#CFD8DC" stroke="#607D8B" stroke-width="1" rx="1"/>
  
  <!-- Third level branch -->
  <line x1="16" y1="48" x2="24" y2="48" stroke="#666666" stroke-width="1.5"/>
  <rect x="26" y="44" width="10" height="6" fill="#81C784" stroke="#4CAF50" stroke-width="1" rx="1"/>
  <rect x="24" y="46" width="14" height="8" fill="#C8E6C9" stroke="#4CAF50" stroke-width="1" rx="1"/>
  
  <!-- Tree connector symbols (like ├── and └──) -->
  <!-- First connector -->
  <circle cx="16" cy="22" r="1" fill="#666666"/>
  
  <!-- Second connector -->
  <circle cx="16" cy="32" r="1" fill="#666666"/>
  
  <!-- Third connector (last) -->
  <circle cx="16" cy="48" r="1" fill="#666666"/>
  
  <!-- Subfolder connector -->
  <circle cx="30" cy="42" r="0.8" fill="#666666"/>
  
  <!-- Small file icons next to some folders -->
  <rect x="42" y="22" width="3" height="4" fill="#E3F2FD" stroke="#2196F3" stroke-width="0.5" rx="0.5"/>
  <rect x="46" y="22" width="3" height="4" fill="#E3F2FD" stroke="#2196F3" stroke-width="0.5" rx="0.5"/>
  
  <rect x="42" y="32" width="3" height="4" fill="#FFF3E0" stroke="#FF9800" stroke-width="0.5" rx="0.5"/>
  
  <rect x="42" y="48" width="3" height="4" fill="#E8F5E8" stroke="#4CAF50" stroke-width="0.5" rx="0.5"/>
  <rect x="46" y="48" width="3" height="4" fill="#E8F5E8" stroke="#4CAF50" stroke-width="0.5" rx="0.5"/>
  <rect x="50" y="48" width="3" height="4" fill="#E8F5E8" stroke="#4CAF50" stroke-width="0.5" rx="0.5"/>
</svg>